<svg width="21" height="21" viewBox="0 0 21 21" fill="none" xmlns="http://www.w3.org/2000/svg">
    <path d="M2.20605 19.781H11.503C12.1344 19.781 12.6048 19.6198 12.9141 19.2976C13.2233 18.9753 13.378 18.4724 13.378 17.7888V10.6209C13.378 9.94376 13.2233 9.44409 12.9141 9.12182C12.6048 8.79956 12.1344 8.63843 11.503 8.63843L2.40136 8.65796C1.77636 8.65796 1.27506 8.81746 0.897461 9.13647C0.519857 9.45549 0.331055 9.95028 0.331055 10.6209V17.7888C0.331055 18.4724 0.487305 18.9753 0.799805 19.2976C1.1123 19.6198 1.58105 19.781 2.20605 19.781ZM10.3604 9.29272H11.9327V5.98218C11.9327 5.16187 12.0889 4.47339 12.4014 3.91675C12.7139 3.36011 13.1273 2.94019 13.6416 2.65698C14.1559 2.37378 14.7191 2.23218 15.3311 2.23218C15.9365 2.23218 16.4981 2.37378 17.0157 2.65698C17.5332 2.94019 17.9466 3.36011 18.2559 3.91675C18.5651 4.47339 18.7198 5.16187 18.7198 5.98218V8.15015C18.7198 8.44962 18.7979 8.67261 18.9541 8.81909C19.1103 8.96558 19.2992 9.03882 19.5206 9.03882C19.7354 9.03882 19.9176 8.96883 20.0674 8.82886C20.2171 8.68888 20.292 8.46264 20.292 8.15015V6.18725C20.292 5.26928 20.1553 4.4685 19.8819 3.78491C19.6084 3.10132 19.2373 2.53328 18.7686 2.08081C18.2998 1.62834 17.7692 1.28979 17.1768 1.06519C16.5843 0.840576 15.9691 0.728271 15.3311 0.728271C14.6931 0.728271 14.0762 0.840576 13.4805 1.06519C12.8848 1.28979 12.3526 1.62834 11.8838 2.08081C11.415 2.53328 11.044 3.10132 10.7706 3.78491C10.4971 4.4685 10.3604 5.26928 10.3604 6.18725V9.29272Z" fill="black" fill-opacity="0.85"/>
</svg>
